<mxfile host="app.diagrams.net" modified="2024-07-16T08:04:33.422Z" agent="Mozilla/5.0 (Windows NT 10.0; Win64; x64) AppleWebKit/537.36 (KHTML, like Gecko) Chrome/126.0.0.0 Safari/537.36" version="24.6.4" etag="6GlQ4mFqHWEv2fy8W8TW" type="github">
  <diagram name="Strona-1" id="1Izt-SALOX2i03LGAE2h">
    <mxGraphModel>
      <root>
        <mxCell id="0" />
        <mxCell id="1" parent="0" />
      </root>
    </mxGraphModel>
  </diagram>
</mxfile>
